<svg xmlns="http://www.w3.org/2000/svg" viewBox="0 0 320 220" preserveAspectRatio="none">
  <defs>
    <filter id="r"><feTurbulence baseFrequency=".022" numOctaves="3" seed="52" result="n"/><feDisplacementMap in="SourceGraphic" in2="n" scale="3.2"/></filter>
    <mask id="d"><rect width="320" height="220" fill="white"/><g fill="black"><circle cx="145" cy="139" r="2.4"/><circle cx="181" cy="155" r="1.8"/><circle cx="166" cy="123" r="1.2"/><path d="m132 151 11-3 2 3-12 3zm48-20 9 2-1 3-9-2z"/></g></mask>
  </defs>
  <g filter="url(#r)" mask="url(#d)">
    <circle cx="164" cy="154" r="38" fill="#d6c09b" opacity=".9"/>
    <circle cx="164" cy="154" r="25" fill="#0a0a09"/>
    <circle cx="164" cy="154" r="21" fill="#11100e"/>
    <g stroke="#cbb48e" stroke-width="1.2" opacity=".72">
      <path d="m164 112 1-18m0 102-1-19m-42-23-20-1m104 1h19m-91-29-14-14m73 73 15 15m-74-15-15 15m74-74 15-15"/>
      <path d="m146 117-8-17m45 92-8-17m-44-4-18 8m100-43 17-7m-97 7-18-7m99 44-18-8m-23-50 8-17m-43 94 7-18"/>
    </g>
  </g>
</svg>
